<mxfile host="app.diagrams.net" modified="2024-04-21T05:48:50.310Z" agent="Mozilla/5.0 (Windows NT 10.0; Win64; x64) AppleWebKit/537.36 (KHTML, like Gecko) Chrome/123.0.0.0 Safari/537.36 Edg/123.0.0.0" etag="fNw_215CcWeiEgz9CQT2" version="24.0.2" type="github">
  <diagram name="Page-1" id="A3IugJk987QsB7z0A6WI">
    <mxGraphModel dx="2282" dy="951" grid="0" gridSize="10" guides="1" tooltips="1" connect="1" arrows="1" fold="1" page="1" pageScale="1" pageWidth="850" pageHeight="1100" math="0" shadow="0">
      <root>
        <mxCell id="0" />
        <mxCell id="1" parent="0" />
        <mxCell id="85EsqUwhqw6jR6gKaEND-1" value="AWS Cloud" style="points=[[0,0],[0.25,0],[0.5,0],[0.75,0],[1,0],[1,0.25],[1,0.5],[1,0.75],[1,1],[0.75,1],[0.5,1],[0.25,1],[0,1],[0,0.75],[0,0.5],[0,0.25]];outlineConnect=0;gradientColor=none;whiteSpace=wrap;fontSize=12;fontStyle=0;container=1;pointerEvents=0;collapsible=0;recursiveResize=0;shape=mxgraph.aws4.group;grIcon=mxgraph.aws4.group_aws_cloud_alt;strokeColor=#232F3E;fillColor=none;verticalAlign=top;align=left;spacingLeft=30;fontColor=#232F3E;dashed=0;labelBorderColor=none;spacing=2;fontFamily=Helvetica;" vertex="1" parent="1">
          <mxGeometry x="203" y="232" width="906" height="480" as="geometry" />
        </mxCell>
        <mxCell id="85EsqUwhqw6jR6gKaEND-72" value="" style="edgeStyle=orthogonalEdgeStyle;rounded=0;orthogonalLoop=1;jettySize=auto;labelBorderColor=none;spacing=2;fontFamily=Helvetica;fontStyle=0" edge="1" parent="85EsqUwhqw6jR6gKaEND-1" source="85EsqUwhqw6jR6gKaEND-10">
          <mxGeometry relative="1" as="geometry">
            <mxPoint x="772" y="360" as="targetPoint" />
          </mxGeometry>
        </mxCell>
        <mxCell id="85EsqUwhqw6jR6gKaEND-10" value="AWS Athena" style="sketch=0;points=[[0,0,0],[0.25,0,0],[0.5,0,0],[0.75,0,0],[1,0,0],[0,1,0],[0.25,1,0],[0.5,1,0],[0.75,1,0],[1,1,0],[0,0.25,0],[0,0.5,0],[0,0.75,0],[1,0.25,0],[1,0.5,0],[1,0.75,0]];outlineConnect=0;fontColor=#232F3E;fillColor=#8C4FFF;strokeColor=#ffffff;dashed=0;verticalLabelPosition=bottom;verticalAlign=top;align=center;fontSize=12;fontStyle=0;aspect=fixed;shape=mxgraph.aws4.resourceIcon;resIcon=mxgraph.aws4.athena;labelBorderColor=none;spacing=2;fontFamily=Helvetica;" vertex="1" parent="85EsqUwhqw6jR6gKaEND-1">
          <mxGeometry x="495" y="321" width="78" height="78" as="geometry" />
        </mxCell>
        <mxCell id="85EsqUwhqw6jR6gKaEND-58" value="" style="edgeStyle=orthogonalEdgeStyle;rounded=0;orthogonalLoop=1;jettySize=auto;labelBorderColor=none;spacing=2;fontFamily=Helvetica;fontStyle=0" edge="1" parent="85EsqUwhqw6jR6gKaEND-1" target="85EsqUwhqw6jR6gKaEND-27">
          <mxGeometry relative="1" as="geometry">
            <mxPoint x="62" y="171.5" as="sourcePoint" />
            <Array as="points">
              <mxPoint x="62" y="92" />
            </Array>
          </mxGeometry>
        </mxCell>
        <mxCell id="85EsqUwhqw6jR6gKaEND-82" value="POST /events" style="edgeLabel;align=center;verticalAlign=middle;resizable=0;points=[];labelBorderColor=none;spacing=2;fontFamily=Helvetica;fontStyle=0" vertex="1" connectable="0" parent="85EsqUwhqw6jR6gKaEND-58">
          <mxGeometry x="0.1835" y="1" relative="1" as="geometry">
            <mxPoint as="offset" />
          </mxGeometry>
        </mxCell>
        <mxCell id="85EsqUwhqw6jR6gKaEND-62" value="" style="edgeStyle=orthogonalEdgeStyle;rounded=0;orthogonalLoop=1;jettySize=auto;labelBorderColor=none;spacing=2;fontFamily=Helvetica;fontStyle=0" edge="1" parent="85EsqUwhqw6jR6gKaEND-1" source="85EsqUwhqw6jR6gKaEND-12" target="85EsqUwhqw6jR6gKaEND-13">
          <mxGeometry relative="1" as="geometry">
            <Array as="points">
              <mxPoint x="210" y="218" />
              <mxPoint x="210" y="360" />
            </Array>
          </mxGeometry>
        </mxCell>
        <mxCell id="85EsqUwhqw6jR6gKaEND-80" value="GET /events" style="edgeLabel;align=center;verticalAlign=middle;resizable=0;points=[];labelBorderColor=none;spacing=2;fontFamily=Helvetica;fontStyle=0" vertex="1" connectable="0" parent="85EsqUwhqw6jR6gKaEND-62">
          <mxGeometry x="0.0614" y="5" relative="1" as="geometry">
            <mxPoint as="offset" />
          </mxGeometry>
        </mxCell>
        <mxCell id="85EsqUwhqw6jR6gKaEND-12" value="AWSÂ &#xa;API Gateway" style="outlineConnect=0;dashed=0;verticalLabelPosition=bottom;verticalAlign=top;align=center;shape=mxgraph.aws3.api_gateway;fillColor=#D9A741;gradientColor=none;labelBorderColor=none;spacing=2;fontFamily=Helvetica;fontStyle=0" vertex="1" parent="85EsqUwhqw6jR6gKaEND-1">
          <mxGeometry x="24" y="171.5" width="76.5" height="93" as="geometry" />
        </mxCell>
        <mxCell id="85EsqUwhqw6jR6gKaEND-61" value="" style="edgeStyle=orthogonalEdgeStyle;rounded=0;orthogonalLoop=1;jettySize=auto;labelBorderColor=none;spacing=2;fontFamily=Helvetica;fontStyle=0" edge="1" parent="85EsqUwhqw6jR6gKaEND-1" source="85EsqUwhqw6jR6gKaEND-13" target="85EsqUwhqw6jR6gKaEND-10">
          <mxGeometry relative="1" as="geometry" />
        </mxCell>
        <mxCell id="85EsqUwhqw6jR6gKaEND-13" value="AWS Lambda FuncretrieveEvents" style="outlineConnect=0;dashed=0;verticalLabelPosition=bottom;verticalAlign=top;align=center;shape=mxgraph.aws3.lambda_function;fillColor=#F58534;gradientColor=none;labelBorderColor=none;spacing=2;fontFamily=Helvetica;fontStyle=0" vertex="1" parent="85EsqUwhqw6jR6gKaEND-1">
          <mxGeometry x="302" y="324" width="69" height="72" as="geometry" />
        </mxCell>
        <mxCell id="85EsqUwhqw6jR6gKaEND-32" value="" style="edgeStyle=orthogonalEdgeStyle;rounded=0;orthogonalLoop=1;jettySize=auto;labelBorderColor=none;spacing=2;fontFamily=Helvetica;fontStyle=0" edge="1" parent="85EsqUwhqw6jR6gKaEND-1" source="85EsqUwhqw6jR6gKaEND-27" target="85EsqUwhqw6jR6gKaEND-31">
          <mxGeometry relative="1" as="geometry" />
        </mxCell>
        <mxCell id="85EsqUwhqw6jR6gKaEND-27" value="AWS Lambda FuncstoreEvents" style="outlineConnect=0;dashed=0;verticalLabelPosition=bottom;verticalAlign=top;align=center;shape=mxgraph.aws3.lambda_function;fillColor=#F58534;gradientColor=none;labelBorderColor=none;spacing=2;fontFamily=Helvetica;fontStyle=0" vertex="1" parent="85EsqUwhqw6jR6gKaEND-1">
          <mxGeometry x="227.7" y="55.5" width="69" height="72" as="geometry" />
        </mxCell>
        <mxCell id="85EsqUwhqw6jR6gKaEND-47" value="" style="edgeStyle=orthogonalEdgeStyle;rounded=0;orthogonalLoop=1;jettySize=auto;labelBorderColor=none;spacing=2;fontFamily=Helvetica;fontStyle=0" edge="1" parent="85EsqUwhqw6jR6gKaEND-1" source="85EsqUwhqw6jR6gKaEND-31" target="85EsqUwhqw6jR6gKaEND-34">
          <mxGeometry relative="1" as="geometry" />
        </mxCell>
        <mxCell id="85EsqUwhqw6jR6gKaEND-86" value="store" style="edgeLabel;html=1;align=center;verticalAlign=middle;resizable=0;points=[];" vertex="1" connectable="0" parent="85EsqUwhqw6jR6gKaEND-47">
          <mxGeometry x="0.0762" y="1" relative="1" as="geometry">
            <mxPoint as="offset" />
          </mxGeometry>
        </mxCell>
        <mxCell id="85EsqUwhqw6jR6gKaEND-31" value="AWS SQS&#xa;verb-player-{env}-AnalyticsQueue" style="outlineConnect=0;dashed=0;verticalLabelPosition=bottom;verticalAlign=top;align=center;shape=mxgraph.aws3.sqs;fillColor=#D9A741;gradientColor=none;labelBorderColor=none;spacing=2;fontFamily=Helvetica;fontStyle=0" vertex="1" parent="85EsqUwhqw6jR6gKaEND-1">
          <mxGeometry x="445" y="45" width="76.5" height="93" as="geometry" />
        </mxCell>
        <mxCell id="85EsqUwhqw6jR6gKaEND-78" value="" style="edgeStyle=orthogonalEdgeStyle;rounded=0;orthogonalLoop=1;jettySize=auto;labelBorderColor=none;spacing=2;fontFamily=Helvetica;fontStyle=0" edge="1" parent="85EsqUwhqw6jR6gKaEND-1" source="85EsqUwhqw6jR6gKaEND-34" target="85EsqUwhqw6jR6gKaEND-79">
          <mxGeometry relative="1" as="geometry">
            <mxPoint x="836" y="296" as="targetPoint" />
          </mxGeometry>
        </mxCell>
        <mxCell id="85EsqUwhqw6jR6gKaEND-87" value="retrieve" style="edgeLabel;html=1;align=center;verticalAlign=middle;resizable=0;points=[];" vertex="1" connectable="0" parent="85EsqUwhqw6jR6gKaEND-78">
          <mxGeometry x="0.1414" relative="1" as="geometry">
            <mxPoint x="1" as="offset" />
          </mxGeometry>
        </mxCell>
        <mxCell id="85EsqUwhqw6jR6gKaEND-34" value="AWS S3&#xa;&#xa;" style="outlineConnect=0;dashed=0;verticalLabelPosition=bottom;verticalAlign=top;align=center;shape=mxgraph.aws3.s3;fillColor=#E05243;gradientColor=none;labelBorderColor=none;spacing=2;fontFamily=Helvetica;fontStyle=0" vertex="1" parent="85EsqUwhqw6jR6gKaEND-1">
          <mxGeometry x="702.7" y="45" width="76.5" height="93" as="geometry" />
        </mxCell>
        <mxCell id="85EsqUwhqw6jR6gKaEND-74" value="create table and query" style="text;align=center;verticalAlign=middle;resizable=0;points=[];autosize=1;strokeColor=none;fillColor=none;labelBorderColor=none;spacing=2;fontFamily=Helvetica;fontStyle=0" vertex="1" parent="85EsqUwhqw6jR6gKaEND-1">
          <mxGeometry x="614" y="335" width="137" height="26" as="geometry" />
        </mxCell>
        <mxCell id="85EsqUwhqw6jR6gKaEND-79" value="Table" style="shape=image;verticalAlign=top;verticalLabelPosition=bottom;labelBackgroundColor=#ffffff;imageAspect=0;aspect=fixed;image=https://cdn1.iconfinder.com/data/icons/material-core/19/view-list-128.png;labelBorderColor=none;spacing=2;fontFamily=Helvetica;fontStyle=0" vertex="1" parent="85EsqUwhqw6jR6gKaEND-1">
          <mxGeometry x="779.2" y="309" width="95" height="95" as="geometry" />
        </mxCell>
        <mxCell id="85EsqUwhqw6jR6gKaEND-83" style="edgeStyle=orthogonalEdgeStyle;rounded=0;orthogonalLoop=1;jettySize=auto;html=1;" edge="1" parent="1" source="85EsqUwhqw6jR6gKaEND-57" target="85EsqUwhqw6jR6gKaEND-1">
          <mxGeometry relative="1" as="geometry" />
        </mxCell>
        <mxCell id="85EsqUwhqw6jR6gKaEND-84" value="REST request" style="edgeLabel;html=1;align=center;verticalAlign=middle;resizable=0;points=[];" vertex="1" connectable="0" parent="85EsqUwhqw6jR6gKaEND-83">
          <mxGeometry x="-0.1872" relative="1" as="geometry">
            <mxPoint as="offset" />
          </mxGeometry>
        </mxCell>
        <mxCell id="85EsqUwhqw6jR6gKaEND-57" value="Client" style="sketch=0;points=[[0,0,0],[0.25,0,0],[0.5,0,0],[0.75,0,0],[1,0,0],[0,1,0],[0.25,1,0],[0.5,1,0],[0.75,1,0],[1,1,0],[0,0.25,0],[0,0.5,0],[0,0.75,0],[1,0.25,0],[1,0.5,0],[1,0.75,0]];outlineConnect=0;fontColor=#232F3E;fillColor=#01A88D;strokeColor=#ffffff;dashed=0;verticalLabelPosition=bottom;verticalAlign=top;align=center;fontSize=12;fontStyle=0;aspect=fixed;shape=mxgraph.aws4.resourceIcon;resIcon=mxgraph.aws4.desktop_and_app_streaming;gradientColor=none;shadow=0;textShadow=0;labelBorderColor=none;spacing=2;fontFamily=Helvetica;" vertex="1" parent="1">
          <mxGeometry x="-151" y="433" width="78" height="78" as="geometry" />
        </mxCell>
        <mxCell id="85EsqUwhqw6jR6gKaEND-85" value="x-api-key" style="points=[[0,0.5,0],[0.24,0,0],[0.5,0.28,0],[0.995,0.475,0],[0.5,0.72,0],[0.24,1,0]];verticalLabelPosition=bottom;sketch=0;html=1;verticalAlign=top;aspect=fixed;align=center;pointerEvents=1;shape=mxgraph.cisco19.key;fillColor=#005073;strokeColor=none;" vertex="1" parent="1">
          <mxGeometry x="21" y="482" width="31.11" height="14" as="geometry" />
        </mxCell>
      </root>
    </mxGraphModel>
  </diagram>
</mxfile>
